<svg xmlns="http://www.w3.org/2000/svg" width="52" height="84" viewBox="0 0 52 84">
  <title>
    roo
  </title>
  <path d="M21.202 49.596c1.673 0 3.03-1.234 3.03-2.755 0-1.52-1.357-2.755-3.03-2.755-1.673 0-3.03 1.234-3.03 2.756 0 1.522 1.357 2.756 3.03 2.756zm31.295-36.77c.187 7.106-7.574 11.21-23.64 12.176 4.45 6.413 20.515 29.665 20.396 36.47-.12 7.303-10.8 20.822-20.99 22.89V65.756s8.083-2.475 8.083-5.01c0-2.535-7.625-3.485-7.625-3.485h-4.788s-7.387.95-7.387 3.485 8.32 5.01 8.32 5.01v18.74c-10.188-1.51-21.923-15.51-22.06-22.98-.1-6.79 16.032-30.57 20.448-37.043C7.63 23.448-.2 19.434.003 12.54.174 6.683 7.02 0 8.684 0h.135c.747.075 1.036.106 9.017 10.517 3.176 4.15 6.42 8.465 8.17 10.864L43.138.107l.73-.046c1.664 0 8.474 6.805 8.627 12.765zm-21.2 36.77c1.674 0 3.03-1.234 3.03-2.755 0-1.52-1.356-2.755-3.03-2.755-1.672 0-3.028 1.234-3.028 2.756 0 1.522 1.355 2.756 3.028 2.756z"/>
</svg>
