<?xml version="1.0" encoding="UTF-8" standalone="no"?>
<svg width="52px" height="84px" viewBox="0 0 52 84" version="1.1" xmlns="http://www.w3.org/2000/svg" xmlns:xlink="http://www.w3.org/1999/xlink" xmlns:sketch="http://www.bohemiancoding.com/sketch/ns">
    <!-- Generator: Sketch 3.5.2 (25235) - http://www.bohemiancoding.com/sketch -->
    <title>roo-logo</title>
    <desc>Created with Sketch.</desc>
    <defs></defs>
    <g id="Page-1" stroke="none" stroke-width="1" fill="none" fill-rule="evenodd" sketch:type="MSPage">
        <g id="roo-logo" sketch:type="MSArtboardGroup" fill="#DBDBDB">
            <path d="M21.2019231,49.5960895 C22.8747088,49.5960895 24.2307692,48.3624827 24.2307692,46.8407512 C24.2307692,45.3190198 22.8747088,44.0854129 21.2019231,44.0854129 C19.5291374,44.0854129 18.1730769,45.3190198 18.1730769,46.8407512 C18.1730769,48.3624827 19.5291374,49.5960895 21.2019231,49.5960895 L21.2019231,49.5960895 Z M52.4967075,12.8254438 C52.6835158,19.9322487 44.9225252,24.036391 28.8571011,25.0020733 C33.3065094,31.4147954 49.3719311,54.6665702 49.2530539,61.4716002 C49.134177,68.774559 38.4522004,82.2940854 28.2627155,84.3612453 L28.2627155,65.7568074 C28.2627155,65.7568074 36.3463739,63.2822513 36.3463739,60.7473401 C36.3463739,58.212429 28.721243,57.2618373 28.721243,57.2618373 L23.9321854,57.2618373 C23.9321854,57.2618373 16.544809,58.212429 16.544809,60.7473401 C16.544809,63.2822513 24.8662217,65.7568074 24.8662217,65.7568074 L24.8662217,84.4970414 C14.6767368,82.9881656 2.94184614,68.9858007 2.80598583,61.5168631 C2.7040902,54.7269224 18.837442,30.9470418 23.2528854,24.4739648 C7.62900879,23.4479297 -0.199911565,19.4343204 0.00387808928,12.538758 C0.173702868,6.68431927 7.01764043,0 8.68192295,0 L8.81778265,0 C9.56501151,0.0754437896 9.85371386,0.105621302 17.8354759,10.5168648 C21.0111984,14.666273 24.2548512,18.9816573 26.0040462,21.3807699 L43.1393635,0.105621302 L43.8696104,0.0603549692 C45.5338929,0.0603549692 52.3438652,6.86538454 52.4967075,12.8254438 L52.4967075,12.8254438 Z M31.2980769,49.5960895 C32.9708626,49.5960895 34.3269231,48.3624827 34.3269231,46.8407512 C34.3269231,45.3190198 32.9708626,44.0854129 31.2980769,44.0854129 C29.6252912,44.0854129 28.2692308,45.3190198 28.2692308,46.8407512 C28.2692308,48.3624827 29.6252912,49.5960895 31.2980769,49.5960895 L31.2980769,49.5960895 Z" id="roo" sketch:type="MSShapeGroup"></path>
        </g>
    </g>
</svg>